<svg xmlns="http://www.w3.org/2000/svg" width="1000" height="390" viewBox="0 0 1000 390" data-palette="56e69c-6ae5e7-acf6b5-3da3be8c6b90" role="img" aria-labelledby="hero-dark-title hero-dark-desc"><title id="hero-dark-title">draftseam</title><desc id="hero-dark-desc">Read and edit supported draft timeline structures.</desc><defs><linearGradient id="brand" gradientUnits="userSpaceOnUse" x2="1000" y2="390"><stop stop-color="#56e69c"/><stop offset=".6" stop-color="#6ae5e7"/><stop offset="1" stop-color="#acf6b5"/></linearGradient><radialGradient id="halo"><stop stop-color="#56e69c" stop-opacity=".22"/><stop offset="1" stop-color="#050c0f" stop-opacity="0"/></radialGradient><filter id="glow"><feGaussianBlur stdDeviation="5"/></filter><pattern id="grid" width="40" height="40" patternUnits="userSpaceOnUse"><path d="M40 0H0V40" fill="none" stroke="#173c2e" stroke-opacity=".35" stroke-width=".6"/></pattern><marker id="arrow" viewBox="0 0 10 10" refX="8" refY="5" markerWidth="5" markerHeight="5" orient="auto"><path d="m1 1 7 4-7 4" fill="none" stroke="#56e69c" stroke-width="1.5"/></marker></defs><style>text{font-family:Arial,"Noto Sans",sans-serif}.flow{stroke-dasharray:10 110;animation:flow 6s linear infinite}.pulse{animation:pulse 5s ease-in-out infinite}.turn{transform-box:fill-box;transform-origin:center;animation:turn 36s linear infinite}@keyframes flow{to{stroke-dashoffset:-360}}@keyframes pulse{0%,100%{opacity:.45}50%{opacity:1}}@keyframes turn{to{transform:rotate(360deg)}}@media(prefers-reduced-motion:reduce){*{animation:none!important;transform:none!important}.flow{display:none}}</style><rect width="1000" height="390" rx="16" fill="#050c0f"/><rect width="1000" height="390" rx="16" fill="url(#grid)"/><ellipse cx="630.0" cy="167.7" rx="500.0" ry="273.0" fill="url(#halo)"/><circle cx="714.29" cy="412.88" r="1.22" fill="#6ae5e7" opacity="0.61"/><circle cx="944.02" cy="409.31" r="1.09" fill="#56e69c" opacity="0.79"/><circle cx="921.81" cy="45.78" r="0.71" fill="#56e69c" opacity="0.52"/><circle cx="671.51" cy="297.46" r="1.31" fill="#6ae5e7" opacity="0.27"/><circle cx="999.04" cy="187.07" r="1.31" fill="#56e69c" opacity="0.54"/><circle cx="1073.47" cy="213.31" r="1.68" fill="#56e69c" opacity="0.77"/><circle cx="640.10" cy="185.66" r="1.06" fill="#6ae5e7" opacity="0.42"/><circle cx="613.79" cy="314.41" r="1.52" fill="#56e69c" opacity="0.79"/><circle cx="1026.82" cy="348.05" r="1.45" fill="#56e69c" opacity="0.26"/><circle cx="992.28" cy="379.96" r="1.02" fill="#6ae5e7" opacity="0.77"/><circle cx="624.46" cy="209.39" r="1.59" fill="#56e69c" opacity="0.61"/><circle cx="951.93" cy="387.21" r="1.53" fill="#56e69c" opacity="0.35"/><circle cx="617.41" cy="170.96" r="0.61" fill="#6ae5e7" opacity="0.24"/><circle cx="650.09" cy="90.91" r="1.02" fill="#56e69c" opacity="0.56"/><circle cx="926.22" cy="36.25" r="0.74" fill="#56e69c" opacity="0.44"/><circle cx="1041.96" cy="329.07" r="1.67" fill="#6ae5e7" opacity="0.36"/><circle cx="900.83" cy="140.93" r="0.76" fill="#56e69c" opacity="0.24"/><circle cx="1020.55" cy="129.56" r="1.67" fill="#56e69c" opacity="0.63"/><circle cx="650.69" cy="106.56" r="0.91" fill="#6ae5e7" opacity="0.27"/><circle cx="704.58" cy="75.64" r="1.69" fill="#56e69c" opacity="0.49"/><circle cx="1082.77" cy="249.54" r="0.79" fill="#56e69c" opacity="0.35"/><circle cx="990.80" cy="85.73" r="0.96" fill="#6ae5e7" opacity="0.39"/><circle cx="1053.00" cy="145.69" r="0.81" fill="#56e69c" opacity="0.56"/><circle cx="880.61" cy="320.52" r="0.87" fill="#56e69c" opacity="0.21"/><circle cx="974.72" cy="308.30" r="0.82" fill="#6ae5e7" opacity="0.41"/><circle cx="614.54" cy="158.61" r="1.27" fill="#56e69c" opacity="0.47"/><circle cx="950.26" cy="125.55" r="1.13" fill="#56e69c" opacity="0.64"/><circle cx="901.40" cy="385.90" r="1.33" fill="#6ae5e7" opacity="0.46"/><circle cx="749.58" cy="216.96" r="1.68" fill="#56e69c" opacity="0.63"/><circle cx="771.01" cy="155.24" r="1.13" fill="#56e69c" opacity="0.66"/><circle cx="1001.54" cy="78.04" r="1.36" fill="#6ae5e7" opacity="0.37"/><circle cx="812.50" cy="414.86" r="1.40" fill="#56e69c" opacity="0.50"/><circle cx="612.94" cy="169.95" r="1.33" fill="#56e69c" opacity="0.69"/><circle cx="891.28" cy="56.86" r="1.17" fill="#6ae5e7" opacity="0.45"/><circle cx="641.64" cy="372.86" r="0.63" fill="#56e69c" opacity="0.46"/><circle cx="718.20" cy="121.46" r="1.00" fill="#56e69c" opacity="0.44"/><circle cx="737.03" cy="398.57" r="1.20" fill="#6ae5e7" opacity="0.65"/><circle cx="919.32" cy="128.86" r="0.94" fill="#56e69c" opacity="0.45"/><circle cx="774.69" cy="157.92" r="1.23" fill="#56e69c" opacity="0.80"/><circle cx="958.46" cy="135.79" r="0.97" fill="#6ae5e7" opacity="0.60"/><circle cx="612.22" cy="106.55" r="1.56" fill="#56e69c" opacity="0.75"/><circle cx="776.67" cy="397.65" r="0.95" fill="#56e69c" opacity="0.30"/><circle cx="649.47" cy="88.26" r="0.64" fill="#6ae5e7" opacity="0.60"/><circle cx="799.47" cy="122.29" r="1.67" fill="#56e69c" opacity="0.48"/><circle cx="622.44" cy="127.10" r="1.14" fill="#56e69c" opacity="0.22"/><circle cx="978.99" cy="311.56" r="1.21" fill="#6ae5e7" opacity="0.41"/><circle cx="613.93" cy="145.82" r="0.97" fill="#56e69c" opacity="0.38"/><circle cx="1043.61" cy="246.96" r="1.38" fill="#56e69c" opacity="0.35"/><circle cx="577.62" cy="223.69" r="1.28" fill="#6ae5e7" opacity="0.72"/><circle cx="1064.95" cy="145.04" r="1.35" fill="#56e69c" opacity="0.67"/><circle cx="982.87" cy="326.23" r="1.32" fill="#56e69c" opacity="0.74"/><circle cx="721.50" cy="36.31" r="0.72" fill="#6ae5e7" opacity="0.53"/><circle cx="714.25" cy="413.66" r="0.67" fill="#56e69c" opacity="0.53"/><circle cx="614.12" cy="143.12" r="0.66" fill="#56e69c" opacity="0.61"/><circle cx="1045.29" cy="144.21" r="1.16" fill="#6ae5e7" opacity="0.47"/><circle cx="810.25" cy="352.44" r="0.72" fill="#56e69c" opacity="0.58"/><circle cx="725.39" cy="43.91" r="1.06" fill="#56e69c" opacity="0.23"/><circle cx="663.79" cy="383.51" r="1.64" fill="#6ae5e7" opacity="0.50"/><circle cx="947.43" cy="40.10" r="1.65" fill="#56e69c" opacity="0.69"/><circle cx="817.36" cy="52.34" r="0.80" fill="#56e69c" opacity="0.23"/><circle cx="1058.84" cy="258.40" r="1.33" fill="#6ae5e7" opacity="0.25"/><circle cx="688.95" cy="188.98" r="0.95" fill="#56e69c" opacity="0.43"/><circle cx="977.65" cy="167.64" r="0.75" fill="#56e69c" opacity="0.68"/><circle cx="922.43" cy="362.44" r="1.43" fill="#6ae5e7" opacity="0.60"/><circle cx="746.06" cy="364.64" r="0.97" fill="#56e69c" opacity="0.36"/><circle cx="1004.79" cy="140.25" r="1.02" fill="#56e69c" opacity="0.21"/><circle cx="1045.65" cy="292.64" r="0.88" fill="#6ae5e7" opacity="0.80"/><circle cx="979.37" cy="361.16" r="1.15" fill="#56e69c" opacity="0.27"/><circle cx="936.68" cy="134.96" r="0.76" fill="#56e69c" opacity="0.51"/><circle cx="859.66" cy="323.16" r="1.34" fill="#6ae5e7" opacity="0.72"/><circle cx="589.29" cy="151.59" r="1.40" fill="#56e69c" opacity="0.72"/><circle cx="827.67" cy="129.44" r="0.82" fill="#56e69c" opacity="0.56"/><circle cx="790.46" cy="413.90" r="1.12" fill="#6ae5e7" opacity="0.37"/><circle cx="1022.95" cy="355.91" r="1.41" fill="#56e69c" opacity="0.40"/><circle cx="573.15" cy="188.86" r="1.20" fill="#56e69c" opacity="0.46"/><circle cx="834.56" cy="346.25" r="1.02" fill="#6ae5e7" opacity="0.47"/><circle cx="944.47" cy="405.62" r="0.86" fill="#56e69c" opacity="0.78"/><circle cx="802.69" cy="127.94" r="0.85" fill="#56e69c" opacity="0.42"/><circle cx="974.31" cy="156.50" r="1.43" fill="#6ae5e7" opacity="0.50"/><circle cx="1047.55" cy="332.91" r="0.97" fill="#56e69c" opacity="0.75"/><circle cx="1037.91" cy="285.45" r="1.35" fill="#56e69c" opacity="0.54"/><circle cx="760.76" cy="34.05" r="1.26" fill="#6ae5e7" opacity="0.23"/><circle cx="905.08" cy="280.20" r="1.56" fill="#56e69c" opacity="0.37"/><circle cx="965.01" cy="82.00" r="1.11" fill="#56e69c" opacity="0.25"/><circle cx="583.12" cy="187.59" r="1.56" fill="#6ae5e7" opacity="0.41"/><circle cx="690.42" cy="258.33" r="1.07" fill="#56e69c" opacity="0.45"/><circle cx="1037.24" cy="238.58" r="1.14" fill="#56e69c" opacity="0.52"/><circle cx="998.60" cy="252.75" r="0.96" fill="#6ae5e7" opacity="0.62"/><circle cx="904.60" cy="74.20" r="0.93" fill="#56e69c" opacity="0.40"/><circle cx="952.22" cy="185.73" r="1.41" fill="#56e69c" opacity="0.53"/><circle cx="810.14" cy="35.92" r="1.63" fill="#6ae5e7" opacity="0.64"/><circle cx="791.32" cy="84.86" r="1.34" fill="#56e69c" opacity="0.71"/><circle cx="636.14" cy="368.49" r="1.54" fill="#56e69c" opacity="0.73"/><circle cx="791.17" cy="66.83" r="0.62" fill="#6ae5e7" opacity="0.69"/><circle cx="988.84" cy="367.03" r="1.60" fill="#56e69c" opacity="0.54"/><circle cx="635.55" cy="365.38" r="0.86" fill="#56e69c" opacity="0.33"/><circle cx="786.35" cy="398.92" r="1.09" fill="#6ae5e7" opacity="0.33"/><circle cx="806.12" cy="174.71" r="1.40" fill="#56e69c" opacity="0.62"/><circle cx="607.93" cy="331.39" r="1.06" fill="#56e69c" opacity="0.67"/><circle cx="992.54" cy="381.73" r="0.84" fill="#6ae5e7" opacity="0.38"/><circle cx="684.65" cy="367.74" r="0.91" fill="#56e69c" opacity="0.56"/><circle cx="648.13" cy="92.27" r="1.45" fill="#56e69c" opacity="0.60"/><circle cx="799.64" cy="262.46" r="1.61" fill="#6ae5e7" opacity="0.49"/><circle cx="657.06" cy="169.99" r="0.65" fill="#56e69c" opacity="0.28"/><circle cx="702.78" cy="346.67" r="1.02" fill="#56e69c" opacity="0.36"/><circle cx="669.51" cy="390.62" r="0.72" fill="#6ae5e7" opacity="0.44"/><circle cx="605.51" cy="135.13" r="1.41" fill="#56e69c" opacity="0.68"/><circle cx="921.69" cy="300.22" r="0.83" fill="#56e69c" opacity="0.41"/><circle cx="602.33" cy="141.68" r="0.82" fill="#6ae5e7" opacity="0.66"/><circle cx="813.17" cy="235.63" r="1.15" fill="#56e69c" opacity="0.30"/><circle cx="665.69" cy="186.36" r="1.41" fill="#56e69c" opacity="0.64"/><circle cx="978.59" cy="110.01" r="1.50" fill="#6ae5e7" opacity="0.39"/><circle cx="729.48" cy="29.84" r="1.49" fill="#56e69c" opacity="0.25"/><circle cx="956.48" cy="159.13" r="0.96" fill="#56e69c" opacity="0.39"/><circle cx="980.30" cy="68.53" r="1.19" fill="#6ae5e7" opacity="0.70"/><circle cx="674.50" cy="282.66" r="1.46" fill="#56e69c" opacity="0.37"/><circle cx="1019.34" cy="356.91" r="1.06" fill="#56e69c" opacity="0.21"/><circle cx="771.97" cy="62.85" r="0.62" fill="#6ae5e7" opacity="0.25"/><circle cx="731.38" cy="391.31" r="1.67" fill="#56e69c" opacity="0.69"/><circle cx="966.55" cy="300.64" r="0.85" fill="#56e69c" opacity="0.27"/><circle cx="693.79" cy="325.63" r="1.67" fill="#6ae5e7" opacity="0.25"/><circle cx="951.00" cy="90.04" r="1.26" fill="#56e69c" opacity="0.71"/><circle cx="718.80" cy="349.64" r="1.22" fill="#56e69c" opacity="0.31"/><circle cx="1007.58" cy="347.75" r="1.36" fill="#6ae5e7" opacity="0.58"/><circle cx="1059.79" cy="147.42" r="0.81" fill="#56e69c" opacity="0.51"/><circle cx="730.36" cy="323.14" r="0.67" fill="#56e69c" opacity="0.71"/><circle cx="734.95" cy="236.82" r="0.98" fill="#6ae5e7" opacity="0.47"/><circle cx="960.74" cy="185.34" r="1.45" fill="#56e69c" opacity="0.69"/><circle cx="897.51" cy="414.29" r="0.93" fill="#56e69c" opacity="0.45"/><circle cx="578.52" cy="258.87" r="0.60" fill="#6ae5e7" opacity="0.31"/><circle cx="1070.20" cy="294.55" r="1.06" fill="#56e69c" opacity="0.29"/><circle cx="1081.79" cy="238.62" r="1.64" fill="#56e69c" opacity="0.72"/><circle cx="627.97" cy="92.63" r="1.21" fill="#6ae5e7" opacity="0.73"/><circle cx="660.21" cy="165.80" r="1.52" fill="#56e69c" opacity="0.61"/><circle cx="846.98" cy="140.97" r="1.46" fill="#56e69c" opacity="0.34"/><circle cx="694.46" cy="103.81" r="1.30" fill="#6ae5e7" opacity="0.34"/><circle cx="764.67" cy="388.42" r="1.05" fill="#56e69c" opacity="0.70"/><circle cx="662.53" cy="387.27" r="0.92" fill="#56e69c" opacity="0.47"/><circle cx="946.79" cy="284.43" r="1.46" fill="#6ae5e7" opacity="0.39"/><circle cx="962.52" cy="52.22" r="1.27" fill="#56e69c" opacity="0.25"/><circle cx="943.40" cy="105.50" r="1.08" fill="#56e69c" opacity="0.42"/><circle cx="756.70" cy="205.80" r="1.69" fill="#6ae5e7" opacity="0.64"/><circle cx="784.15" cy="90.82" r="1.04" fill="#56e69c" opacity="0.57"/><circle cx="970.62" cy="83.72" r="1.68" fill="#56e69c" opacity="0.74"/><circle cx="804.96" cy="427.59" r="0.89" fill="#6ae5e7" opacity="0.34"/><circle cx="932.81" cy="176.36" r="0.93" fill="#56e69c" opacity="0.70"/><circle cx="579.78" cy="174.62" r="1.57" fill="#56e69c" opacity="0.55"/><circle cx="906.94" cy="214.85" r="1.29" fill="#6ae5e7" opacity="0.64"/><circle cx="887.02" cy="337.25" r="0.77" fill="#56e69c" opacity="0.46"/><circle cx="1045.83" cy="178.75" r="1.64" fill="#56e69c" opacity="0.66"/><circle cx="727.50" cy="33.93" r="1.53" fill="#6ae5e7" opacity="0.65"/><circle cx="592.18" cy="131.69" r="0.76" fill="#56e69c" opacity="0.71"/><circle cx="910.47" cy="105.05" r="0.97" fill="#56e69c" opacity="0.78"/><circle cx="601.18" cy="213.67" r="1.67" fill="#6ae5e7" opacity="0.67"/><circle cx="809.75" cy="311.54" r="0.89" fill="#56e69c" opacity="0.78"/><circle cx="611.17" cy="308.37" r="0.80" fill="#56e69c" opacity="0.76"/><circle cx="789.82" cy="335.61" r="0.80" fill="#6ae5e7" opacity="0.71"/><circle cx="958.21" cy="349.75" r="1.62" fill="#56e69c" opacity="0.44"/><circle cx="637.08" cy="115.82" r="1.08" fill="#56e69c" opacity="0.59"/><circle cx="1076.66" cy="277.52" r="1.25" fill="#6ae5e7" opacity="0.66"/><circle cx="784.94" cy="18.07" r="1.29" fill="#56e69c" opacity="0.75"/><circle cx="979.41" cy="380.60" r="0.88" fill="#56e69c" opacity="0.41"/><circle cx="730.52" cy="418.74" r="0.73" fill="#6ae5e7" opacity="0.53"/><circle cx="1051.63" cy="134.77" r="1.08" fill="#56e69c" opacity="0.37"/><circle cx="778.43" cy="313.72" r="0.93" fill="#56e69c" opacity="0.54"/><circle cx="1080.16" cy="236.76" r="1.28" fill="#6ae5e7" opacity="0.76"/><circle cx="703.48" cy="403.51" r="1.06" fill="#56e69c" opacity="0.37"/><circle cx="1083.43" cy="208.78" r="1.25" fill="#56e69c" opacity="0.62"/><circle cx="898.03" cy="23.46" r="0.83" fill="#6ae5e7" opacity="0.52"/><circle cx="763.14" cy="85.18" r="1.20" fill="#56e69c" opacity="0.44"/><circle cx="777.59" cy="21.70" r="0.97" fill="#56e69c" opacity="0.25"/><circle cx="1009.01" cy="232.77" r="1.04" fill="#6ae5e7" opacity="0.37"/><circle cx="978.80" cy="55.97" r="1.50" fill="#56e69c" opacity="0.52"/><circle cx="873.44" cy="141.52" r="0.79" fill="#56e69c" opacity="0.25"/><circle cx="842.97" cy="67.47" r="1.30" fill="#6ae5e7" opacity="0.48"/><circle cx="661.48" cy="161.66" r="1.69" fill="#56e69c" opacity="0.76"/><circle cx="800.49" cy="24.20" r="1.51" fill="#56e69c" opacity="0.46"/><circle cx="784.25" cy="18.93" r="1.51" fill="#6ae5e7" opacity="0.55"/><circle cx="667.29" cy="152.68" r="1.66" fill="#56e69c" opacity="0.37"/><circle cx="565.69" cy="235.23" r="1.47" fill="#56e69c" opacity="0.49"/><circle cx="1050.65" cy="214.81" r="1.09" fill="#6ae5e7" opacity="0.32"/><circle cx="991.95" cy="98.51" r="1.67" fill="#56e69c" opacity="0.43"/><circle cx="619.93" cy="262.49" r="1.25" fill="#56e69c" opacity="0.33"/><circle cx="815.75" cy="434.75" r="1.05" fill="#6ae5e7" opacity="0.53"/><circle cx="671.19" cy="129.49" r="1.43" fill="#56e69c" opacity="0.43"/><circle cx="957.43" cy="272.86" r="0.76" fill="#56e69c" opacity="0.40"/><circle cx="1063.04" cy="307.86" r="1.48" fill="#6ae5e7" opacity="0.41"/><circle cx="768.42" cy="405.87" r="0.85" fill="#56e69c" opacity="0.29"/><circle cx="862.23" cy="432.60" r="1.39" fill="#56e69c" opacity="0.78"/><circle cx="913.98" cy="85.26" r="1.27" fill="#6ae5e7" opacity="0.24"/><circle cx="735.32" cy="203.80" r="1.27" fill="#56e69c" opacity="0.69"/><circle cx="797.22" cy="214.76" r="1.06" fill="#56e69c" opacity="0.54"/><circle cx="871.32" cy="324.54" r="1.00" fill="#6ae5e7" opacity="0.42"/><circle cx="879.36" cy="203.62" r="1.09" fill="#56e69c" opacity="0.23"/><circle cx="1069.93" cy="255.05" r="1.55" fill="#56e69c" opacity="0.40"/><circle cx="841.26" cy="81.31" r="1.15" fill="#6ae5e7" opacity="0.61"/><circle cx="749.23" cy="385.07" r="0.84" fill="#56e69c" opacity="0.74"/><circle cx="742.28" cy="372.33" r="0.84" fill="#56e69c" opacity="0.70"/><circle cx="724.05" cy="377.37" r="1.21" fill="#6ae5e7" opacity="0.70"/><circle cx="801.54" cy="386.99" r="0.93" fill="#56e69c" opacity="0.68"/><circle cx="868.09" cy="384.74" r="1.40" fill="#56e69c" opacity="0.50"/><circle cx="749.36" cy="193.94" r="1.04" fill="#6ae5e7" opacity="0.80"/><circle cx="993.49" cy="121.78" r="1.65" fill="#56e69c" opacity="0.38"/><circle cx="675.34" cy="268.23" r="0.61" fill="#56e69c" opacity="0.24"/><circle cx="767.35" cy="20.50" r="0.82" fill="#6ae5e7" opacity="0.27"/><circle cx="583.91" cy="158.39" r="1.70" fill="#56e69c" opacity="0.56"/><circle cx="642.65" cy="241.80" r="1.03" fill="#56e69c" opacity="0.71"/><circle cx="741.87" cy="56.24" r="1.65" fill="#6ae5e7" opacity="0.52"/><circle cx="1049.68" cy="286.73" r="0.81" fill="#56e69c" opacity="0.71"/><circle cx="985.16" cy="285.27" r="0.64" fill="#56e69c" opacity="0.74"/><circle cx="953.96" cy="374.51" r="1.21" fill="#6ae5e7" opacity="0.33"/><circle cx="782.37" cy="410.74" r="1.08" fill="#56e69c" opacity="0.72"/><circle cx="806.51" cy="407.09" r="0.83" fill="#56e69c" opacity="0.69"/><circle cx="565.23" cy="230.69" r="0.98" fill="#6ae5e7" opacity="0.22"/><circle cx="655.20" cy="236.20" r="0.62" fill="#56e69c" opacity="0.77"/><circle cx="1049.40" cy="287.33" r="0.80" fill="#56e69c" opacity="0.41"/><circle cx="911.01" cy="372.96" r="0.62" fill="#6ae5e7" opacity="0.66"/><circle cx="1056.00" cy="173.55" r="1.33" fill="#56e69c" opacity="0.77"/><circle cx="591.37" cy="226.67" r="0.80" fill="#56e69c" opacity="0.76"/><circle cx="712.37" cy="339.32" r="0.78" fill="#6ae5e7" opacity="0.67"/><circle cx="774.12" cy="414.61" r="1.44" fill="#56e69c" opacity="0.25"/><circle cx="747.03" cy="232.69" r="0.81" fill="#56e69c" opacity="0.79"/><circle cx="940.72" cy="111.59" r="1.01" fill="#6ae5e7" opacity="0.56"/><circle cx="871.13" cy="30.34" r="1.29" fill="#56e69c" opacity="0.46"/><circle cx="691.14" cy="116.47" r="1.48" fill="#56e69c" opacity="0.47"/><circle cx="795.99" cy="432.98" r="1.60" fill="#6ae5e7" opacity="0.71"/><circle cx="650.34" cy="375.55" r="1.10" fill="#56e69c" opacity="0.79"/><circle cx="801.30" cy="294.40" r="1.57" fill="#56e69c" opacity="0.31"/><circle cx="641.14" cy="261.16" r="0.60" fill="#6ae5e7" opacity="0.53"/><circle cx="637.16" cy="169.38" r="1.49" fill="#56e69c" opacity="0.59"/><circle cx="667.79" cy="246.94" r="1.31" fill="#56e69c" opacity="0.38"/><circle cx="753.53" cy="23.27" r="1.21" fill="#6ae5e7" opacity="0.52"/><circle cx="970.75" cy="199.56" r="1.17" fill="#56e69c" opacity="0.24"/><circle cx="1013.55" cy="213.88" r="0.75" fill="#56e69c" opacity="0.74"/><circle cx="1036.72" cy="175.81" r="0.60" fill="#6ae5e7" opacity="0.59"/><circle cx="798.33" cy="428.89" r="1.07" fill="#56e69c" opacity="0.66"/><circle cx="951.80" cy="109.97" r="0.92" fill="#56e69c" opacity="0.49"/><circle cx="718.42" cy="375.92" r="1.09" fill="#6ae5e7" opacity="0.39"/><circle cx="722.84" cy="364.77" r="1.37" fill="#56e69c" opacity="0.27"/><circle cx="782.07" cy="357.05" r="1.29" fill="#56e69c" opacity="0.52"/><circle cx="782.91" cy="192.45" r="1.29" fill="#6ae5e7" opacity="0.56"/><circle cx="754.98" cy="252.48" r="1.22" fill="#56e69c" opacity="0.52"/><circle cx="868.03" cy="313.55" r="1.58" fill="#56e69c" opacity="0.70"/><circle cx="846.77" cy="433.07" r="1.58" fill="#6ae5e7" opacity="0.48"/><circle cx="935.89" cy="35.63" r="1.23" fill="#56e69c" opacity="0.57"/><circle cx="728.77" cy="389.09" r="1.29" fill="#56e69c" opacity="0.51"/><circle cx="815.43" cy="340.16" r="0.90" fill="#6ae5e7" opacity="0.39"/><circle cx="1034.42" cy="119.34" r="1.13" fill="#56e69c" opacity="0.65"/><circle cx="589.29" cy="289.12" r="1.21" fill="#56e69c" opacity="0.41"/><circle cx="1024.90" cy="342.58" r="1.62" fill="#6ae5e7" opacity="0.76"/><circle cx="749.65" cy="210.89" r="1.17" fill="#56e69c" opacity="0.75"/><circle cx="1084.11" cy="213.25" r="1.33" fill="#56e69c" opacity="0.41"/><circle cx="688.76" cy="380.45" r="0.94" fill="#6ae5e7" opacity="0.53"/><circle cx="790.15" cy="409.57" r="1.06" fill="#56e69c" opacity="0.63"/><circle cx="914.50" cy="388.75" r="1.51" fill="#56e69c" opacity="0.46"/><circle cx="760.29" cy="43.67" r="0.63" fill="#6ae5e7" opacity="0.61"/><circle cx="994.15" cy="151.39" r="0.65" fill="#56e69c" opacity="0.49"/><circle cx="645.29" cy="323.83" r="1.34" fill="#56e69c" opacity="0.80"/><circle cx="714.57" cy="39.41" r="0.97" fill="#6ae5e7" opacity="0.27"/><circle cx="931.16" cy="205.08" r="1.34" fill="#56e69c" opacity="0.27"/><circle cx="695.43" cy="96.79" r="0.75" fill="#56e69c" opacity="0.71"/><circle cx="917.64" cy="62.48" r="1.10" fill="#6ae5e7" opacity="0.24"/><circle cx="761.65" cy="166.14" r="1.46" fill="#56e69c" opacity="0.61"/><circle cx="646.89" cy="377.99" r="1.38" fill="#56e69c" opacity="0.25"/><circle cx="959.58" cy="176.67" r="1.34" fill="#6ae5e7" opacity="0.48"/><circle cx="730.83" cy="247.96" r="1.48" fill="#56e69c" opacity="0.78"/><circle cx="847.32" cy="198.86" r="1.58" fill="#56e69c" opacity="0.24"/><circle cx="775.24" cy="200.82" r="0.93" fill="#6ae5e7" opacity="0.23"/><circle cx="763.38" cy="274.63" r="0.91" fill="#56e69c" opacity="0.20"/><circle cx="614.60" cy="221.27" r="1.36" fill="#56e69c" opacity="0.33"/><circle cx="957.50" cy="279.65" r="1.12" fill="#6ae5e7" opacity="0.25"/><circle cx="603.77" cy="196.46" r="1.07" fill="#56e69c" opacity="0.73"/><circle cx="1029.73" cy="351.02" r="0.61" fill="#56e69c" opacity="0.43"/><circle cx="935.80" cy="130.10" r="1.37" fill="#6ae5e7" opacity="0.32"/><circle cx="585.09" cy="144.23" r="0.77" fill="#56e69c" opacity="0.31"/><circle cx="731.57" cy="415.08" r="1.01" fill="#56e69c" opacity="0.21"/><circle cx="814.48" cy="365.87" r="1.31" fill="#6ae5e7" opacity="0.55"/><circle cx="612.70" cy="310.78" r="0.87" fill="#56e69c" opacity="0.69"/><circle cx="1032.94" cy="99.01" r="0.65" fill="#56e69c" opacity="0.42"/><circle cx="939.01" cy="81.18" r="1.02" fill="#6ae5e7" opacity="0.28"/><circle cx="783.79" cy="108.85" r="1.33" fill="#56e69c" opacity="0.66"/><circle cx="780.43" cy="99.10" r="1.16" fill="#56e69c" opacity="0.22"/><circle cx="890.49" cy="344.40" r="0.71" fill="#6ae5e7" opacity="0.73"/><circle cx="709.85" cy="42.57" r="1.29" fill="#56e69c" opacity="0.62"/><circle cx="581.71" cy="288.97" r="0.76" fill="#56e69c" opacity="0.65"/><circle cx="873.51" cy="80.32" r="1.53" fill="#6ae5e7" opacity="0.66"/><circle cx="982.40" cy="383.74" r="1.58" fill="#56e69c" opacity="0.45"/><circle cx="1058.70" cy="200.25" r="1.33" fill="#56e69c" opacity="0.48"/><circle cx="907.59" cy="165.08" r="0.82" fill="#6ae5e7" opacity="0.34"/><circle cx="582.13" cy="162.68" r="0.67" fill="#56e69c" opacity="0.74"/><circle cx="667.88" cy="254.36" r="1.05" fill="#56e69c" opacity="0.72"/><circle cx="630.03" cy="323.32" r="1.12" fill="#6ae5e7" opacity="0.37"/><circle cx="577.83" cy="223.77" r="1.50" fill="#56e69c" opacity="0.75"/><circle cx="749.98" cy="177.71" r="1.62" fill="#56e69c" opacity="0.60"/><circle cx="1028.13" cy="247.59" r="1.14" fill="#6ae5e7" opacity="0.37"/><circle cx="878.83" cy="389.16" r="1.02" fill="#56e69c" opacity="0.50"/><circle cx="893.86" cy="92.02" r="0.76" fill="#56e69c" opacity="0.60"/><circle cx="969.99" cy="313.39" r="1.16" fill="#6ae5e7" opacity="0.61"/><circle cx="705.30" cy="60.12" r="1.61" fill="#56e69c" opacity="0.45"/><circle cx="576.65" cy="222.81" r="1.13" fill="#56e69c" opacity="0.53"/><circle cx="908.64" cy="294.97" r="0.71" fill="#6ae5e7" opacity="0.23"/><circle cx="589.59" cy="220.19" r="0.89" fill="#56e69c" opacity="0.76"/><circle cx="856.29" cy="251.80" r="0.95" fill="#56e69c" opacity="0.54"/><circle cx="851.11" cy="23.98" r="1.58" fill="#6ae5e7" opacity="0.64"/><circle cx="712.81" cy="164.66" r="0.66" fill="#56e69c" opacity="0.62"/><circle cx="959.20" cy="214.25" r="0.82" fill="#56e69c" opacity="0.24"/><circle cx="828.57" cy="400.02" r="0.97" fill="#6ae5e7" opacity="0.21"/><circle cx="906.61" cy="43.73" r="0.94" fill="#56e69c" opacity="0.74"/><circle cx="999.24" cy="116.15" r="1.26" fill="#56e69c" opacity="0.27"/><circle cx="597.01" cy="124.72" r="1.47" fill="#6ae5e7" opacity="0.46"/><circle cx="589.43" cy="139.64" r="1.34" fill="#56e69c" opacity="0.47"/><circle cx="923.25" cy="162.93" r="1.26" fill="#56e69c" opacity="0.34"/><circle cx="846.66" cy="176.31" r="1.22" fill="#6ae5e7" opacity="0.41"/><circle cx="692.41" cy="394.66" r="0.95" fill="#56e69c" opacity="0.60"/><circle cx="829.67" cy="379.83" r="1.19" fill="#56e69c" opacity="0.34"/><circle cx="567.08" cy="206.36" r="0.92" fill="#6ae5e7" opacity="0.25"/><circle cx="713.08" cy="413.32" r="0.87" fill="#56e69c" opacity="0.42"/><circle cx="858.95" cy="388.48" r="1.49" fill="#56e69c" opacity="0.68"/><circle cx="607.76" cy="315.09" r="0.96" fill="#6ae5e7" opacity="0.40"/><circle cx="630.83" cy="360.81" r="0.96" fill="#56e69c" opacity="0.37"/><circle cx="887.28" cy="53.83" r="1.06" fill="#56e69c" opacity="0.58"/><circle cx="797.37" cy="32.01" r="1.01" fill="#6ae5e7" opacity="0.56"/><circle cx="952.48" cy="245.29" r="0.61" fill="#56e69c" opacity="0.73"/><circle cx="750.81" cy="118.96" r="0.88" fill="#56e69c" opacity="0.50"/><circle cx="667.98" cy="338.90" r="1.44" fill="#6ae5e7" opacity="0.26"/><circle cx="761.14" cy="397.57" r="1.64" fill="#56e69c" opacity="0.76"/><circle cx="933.66" cy="293.46" r="1.05" fill="#56e69c" opacity="0.36"/><circle cx="1048.34" cy="318.28" r="0.76" fill="#6ae5e7" opacity="0.35"/><circle cx="977.45" cy="367.57" r="1.09" fill="#56e69c" opacity="0.72"/><circle cx="587.22" cy="282.92" r="1.69" fill="#56e69c" opacity="0.23"/><circle cx="1035.60" cy="337.63" r="0.63" fill="#6ae5e7" opacity="0.22"/><circle cx="852.55" cy="230.90" r="0.88" fill="#56e69c" opacity="0.43"/><circle cx="1052.78" cy="135.82" r="0.77" fill="#56e69c" opacity="0.46"/><circle cx="763.07" cy="254.87" r="1.46" fill="#6ae5e7" opacity="0.24"/><circle cx="826.94" cy="19.02" r="0.82" fill="#56e69c" opacity="0.75"/><circle cx="808.66" cy="187.38" r="1.10" fill="#56e69c" opacity="0.45"/><circle cx="968.87" cy="88.63" r="1.48" fill="#6ae5e7" opacity="0.29"/><circle cx="1044.87" cy="335.99" r="1.27" fill="#56e69c" opacity="0.43"/><circle cx="957.40" cy="403.58" r="1.30" fill="#56e69c" opacity="0.63"/><circle cx="777.42" cy="331.15" r="1.34" fill="#6ae5e7" opacity="0.39"/><circle cx="591.14" cy="314.82" r="1.54" fill="#56e69c" opacity="0.42"/><circle cx="894.43" cy="41.11" r="0.93" fill="#56e69c" opacity="0.79"/><circle cx="737.43" cy="60.19" r="0.66" fill="#6ae5e7" opacity="0.66"/><circle cx="593.75" cy="130.66" r="0.84" fill="#56e69c" opacity="0.75"/><circle cx="1070.78" cy="156.55" r="0.70" fill="#56e69c" opacity="0.28"/><circle cx="1051.68" cy="122.16" r="0.74" fill="#6ae5e7" opacity="0.50"/><circle cx="607.41" cy="130.29" r="1.56" fill="#56e69c" opacity="0.36"/><circle cx="1001.85" cy="273.40" r="0.84" fill="#56e69c" opacity="0.63"/><circle cx="696.69" cy="181.99" r="1.43" fill="#6ae5e7" opacity="0.34"/><circle cx="903.30" cy="263.89" r="1.18" fill="#56e69c" opacity="0.36"/><circle cx="934.98" cy="172.24" r="1.20" fill="#56e69c" opacity="0.78"/><circle cx="787.74" cy="299.08" r="0.98" fill="#6ae5e7" opacity="0.23"/><circle cx="805.42" cy="17.52" r="1.45" fill="#56e69c" opacity="0.32"/><circle cx="803.96" cy="48.05" r="0.91" fill="#56e69c" opacity="0.56"/><circle cx="595.54" cy="314.04" r="1.23" fill="#6ae5e7" opacity="0.45"/><circle cx="575.00" cy="282.33" r="1.33" fill="#56e69c" opacity="0.62"/><circle cx="810.51" cy="220.34" r="1.23" fill="#56e69c" opacity="0.79"/><circle cx="821.09" cy="374.76" r="1.46" fill="#6ae5e7" opacity="0.78"/><circle cx="839.06" cy="79.41" r="1.57" fill="#56e69c" opacity="0.37"/><circle cx="699.31" cy="301.39" r="1.18" fill="#56e69c" opacity="0.36"/><text x="48" y="56" fill="#95b9b6" font-size="13" text-anchor="start" font-weight="400">PROJECT / OPEN SOURCE</text><text x="48" y="182" font-size="74.0" fill="url(#brand)" font-weight="700">draftseam</text><text x="50" y="242.0" fill="#eefdf0" font-size="24" text-anchor="start" font-weight="400">Read and edit supported draft timeline</text><text x="50" y="275.6" fill="#eefdf0" font-size="24" text-anchor="start" font-weight="400">structures.</text><path d="M656.0 309.0L762.6 193.5L864.0 235.5L975.8 120.0" fill="none" stroke="#56e69c" stroke-width="1.5" marker-end="url(#arrow)"/><path d="M656.0 309.0L762.6 193.5L864.0 235.5L975.8 120.0" class="flow" fill="none" stroke="#acf6b5" stroke-width="2"/><circle cx="656.0" cy="309.0" r="12" fill="#acf6b5" opacity=".5" filter="url(#glow)"/><circle class="pulse" cx="656.0" cy="309.0" r="3" fill="#acf6b5"/><circle cx="762.6" cy="193.5" r="12" fill="#acf6b5" opacity=".5" filter="url(#glow)"/><circle class="pulse" cx="762.6" cy="193.5" r="3" fill="#acf6b5"/><circle cx="864.0" cy="235.5" r="12" fill="#acf6b5" opacity=".5" filter="url(#glow)"/><circle class="pulse" cx="864.0" cy="235.5" r="3" fill="#acf6b5"/><circle cx="975.8" cy="120.0" r="12" fill="#acf6b5" opacity=".5" filter="url(#glow)"/><circle class="pulse" cx="975.8" cy="120.0" r="3" fill="#acf6b5"/></svg>
